<?xml version="1.0" encoding="UTF-8"?>
<svg id="Layer_2" data-name="Layer 2" xmlns="http://www.w3.org/2000/svg" viewBox="0 0 1920 1087">
  <defs>
    <style>
      .cls-1 {
        stroke: #000;
        stroke-miterlimit: 10;
      }

      .cls-1, .cls-2 {
        fill: #000;
      }

      .cls-3 {
        fill: #f0ab45;
      }

      .cls-3, .cls-2, .cls-4, .cls-5, .cls-6 {
        stroke-width: 0px;
      }

      .cls-4 {
        fill: #6b6c75;
      }

      .cls-5 {
        fill: #e4ffff;
      }

      .cls-6 {
        fill: #fff;
      }
    </style>
  </defs>
  <g id="forground">
    <rect class="cls-4" width="350" height="1087"/>
    <rect class="cls-4" x="1570" width="350" height="1087"/>
    <g>
      <path class="cls-3" d="M1719.54,482.5h78.66c29.82,0,54.02,24.21,54.02,54.02v91.02c0,29.82-24.21,54.02-54.02,54.02h-78.66c-29.82,0-54.02-24.21-54.02-54.02v-91.02c0-29.82,24.21-54.02,54.02-54.02Z"/>
      <path class="cls-2" d="M1798.2,483c29.51,0,53.52,24.01,53.52,53.52v91.02c0,29.51-24.01,53.52-53.52,53.52h-78.66c-29.51,0-53.52-24.01-53.52-53.52v-91.02c0-29.51,24.01-53.52,53.52-53.52h78.66M1798.2,482h-78.66c-30.11,0-54.52,24.41-54.52,54.52v91.02c0,30.11,24.41,54.52,54.52,54.52h78.66c30.11,0,54.52-24.41,54.52-54.52v-91.02c0-30.11-24.41-54.52-54.52-54.52h0Z"/>
    </g>
    <g>
      <path class="cls-6" d="M1711.66,580.41c-21.73,0-39.4-17.68-39.4-39.4s17.67-39.4,39.4-39.4,39.4,17.67,39.4,39.4-17.68,39.4-39.4,39.4Z"/>
      <path class="cls-2" d="M1711.66,502.11c21.45,0,38.9,17.45,38.9,38.9s-17.45,38.9-38.9,38.9-38.9-17.45-38.9-38.9,17.45-38.9,38.9-38.9M1711.66,501.11c-22.04,0-39.9,17.86-39.9,39.9s17.86,39.9,39.9,39.9,39.9-17.86,39.9-39.9-17.86-39.9-39.9-39.9h0Z"/>
    </g>
    <g>
      <path class="cls-6" d="M1804.95,580.41c-21.73,0-39.4-17.68-39.4-39.4s17.68-39.4,39.4-39.4,39.4,17.67,39.4,39.4-17.67,39.4-39.4,39.4Z"/>
      <path class="cls-2" d="M1804.95,502.11c21.45,0,38.9,17.45,38.9,38.9s-17.45,38.9-38.9,38.9-38.9-17.45-38.9-38.9,17.45-38.9,38.9-38.9M1804.95,501.11c-22.04,0-39.9,17.86-39.9,39.9s17.86,39.9,39.9,39.9,39.9-17.86,39.9-39.9-17.86-39.9-39.9-39.9h0Z"/>
    </g>
    <g>
      <path class="cls-2" d="M1756.62,643.02c-21.88,0-127.05-28.28-143.42-49.45-1.83-2.37-2.5-4.59-1.97-6.59,1.34-5.12,9.2-7.72,23.37-7.72,21.29,0,53.36,5.81,79.12,10.48,18.19,3.3,33.9,6.14,41.27,6.14h0c.38,0,.74,0,1.08-.02,6.33-.29,20.32-3.57,38.05-7.72,29.18-6.83,65.49-15.34,88.13-15.34,11.8,0,18.53,2.38,20,7.08.64,2.05.08,4.36-1.67,6.86-9.32,13.31-48.39,28.55-70.86,36.44-31.77,11.17-63.58,19.4-72.27,19.81-.25.01-.53.02-.82.02Z"/>
      <path class="cls-2" d="M1882.24,572.31v1c11.56,0,18.13,2.27,19.52,6.73.59,1.89.05,4.05-1.61,6.42-3.96,5.66-18.41,17.91-70.62,36.26-31.72,11.15-63.47,19.37-72.13,19.78-.25.01-.52.02-.8.02-9.27,0-39.78-6.34-72.91-16.59-37.47-11.59-63.02-23.5-70.11-32.67-1.73-2.24-2.37-4.31-1.88-6.15,1.27-4.87,8.97-7.35,22.88-7.35,21.24,0,53.28,5.81,79.02,10.47,18.22,3.3,33.95,6.15,41.36,6.15.39,0,.76,0,1.11-.02,6.37-.29,20.39-3.57,38.14-7.73,29.15-6.83,65.43-15.32,88.02-15.32v-1M1882.24,572.31c-36.46,0-109.56,22.29-126.2,23.05-.33.02-.68.02-1.06.02-17.79,0-84.11-16.62-120.39-16.62-13.11,0-22.31,2.17-23.85,8.09-5.83,22.34,123.27,56.67,145.87,56.67.3,0,.58,0,.85-.02,19.99-.94,152.44-40.75,145.26-63.76-1.68-5.37-9.38-7.44-20.48-7.44h0Z"/>
    </g>
    <g>
      <path class="cls-2" d="M1701.44,559.67c-5.05,0-9.16-4.11-9.16-9.16s4.11-9.16,9.16-9.16,9.16,4.11,9.16,9.16-4.11,9.16-9.16,9.16Z"/>
      <path class="cls-2" d="M1701.44,541.84c4.78,0,8.66,3.89,8.66,8.66s-3.89,8.66-8.66,8.66-8.66-3.89-8.66-8.66,3.89-8.66,8.66-8.66M1701.44,540.84c-5.34,0-9.66,4.33-9.66,9.66s4.33,9.66,9.66,9.66,9.66-4.33,9.66-9.66-4.33-9.66-9.66-9.66h0Z"/>
    </g>
    <g>
      <path class="cls-2" d="M1795.82,559.63c-5.05,0-9.16-4.11-9.16-9.16s4.11-9.16,9.16-9.16,9.16,4.11,9.16,9.16-4.11,9.16-9.16,9.16Z"/>
      <path class="cls-2" d="M1795.82,541.81c4.78,0,8.66,3.89,8.66,8.66s-3.89,8.66-8.66,8.66-8.66-3.89-8.66-8.66,3.89-8.66,8.66-8.66M1795.82,540.81c-5.34,0-9.66,4.33-9.66,9.66s4.33,9.66,9.66,9.66,9.66-4.33,9.66-9.66-4.33-9.66-9.66-9.66h0Z"/>
    </g>
    <circle class="cls-1" cx="1746.5" cy="661.28" r="12.36"/>
    <g>
      <path class="cls-5" d="M1725.16,682.57h78.66c29.82,0,54.02,24.21,54.02,54.02v295.58c0,29.82-24.21,54.02-54.02,54.02h-78.66c-29.82,0-54.02-24.21-54.02-54.02v-295.58c0-29.82,24.21-54.02,54.02-54.02Z"/>
      <path class="cls-2" d="M1803.82,683.07c29.51,0,53.52,24.01,53.52,53.52v295.58c0,29.51-24.01,53.52-53.52,53.52h-78.66c-29.51,0-53.52-24.01-53.52-53.52v-295.58c0-29.51,24.01-53.52,53.52-53.52h78.66M1803.82,682.07h-78.66c-30.11,0-54.52,24.41-54.52,54.52v295.58c0,30.11,24.41,54.52,54.52,54.52h78.66c30.11,0,54.52-24.41,54.52-54.52v-295.58c0-30.11-24.41-54.52-54.52-54.52h0Z"/>
    </g>
    <g>
      <rect class="cls-3" x="1736.33" y="682.57" width="51.83" height="123.76"/>
      <path class="cls-2" d="M1787.65,683.07v122.76h-50.83v-122.76h50.83M1788.65,682.07h-52.83v124.76h52.83v-124.76h0Z"/>
    </g>
    <g>
      <path class="cls-6" d="M1665.52,524.22v-170.84h-.5c-25.75,0-46.71-20.95-46.71-46.71s20.95-46.71,46.71-46.71c11.52,0,22.58,4.23,31.14,11.9l.33.3.33-.3c8.56-7.67,19.62-11.9,31.14-11.9s21.64,3.88,30.02,10.93l.32.27.32-.27c8.38-7.05,19.04-10.93,30.03-10.93,11.79,0,23.05,4.4,31.69,12.4l.34.31.34-.31c8.64-8,19.9-12.4,31.69-12.4,25.75,0,46.71,20.95,46.71,46.71s-20.95,46.71-46.71,46.71h-.5v170.84h-186.7Z"/>
      <path class="cls-2" d="M1852.72,260.46c25.48,0,46.21,20.73,46.21,46.21s-20.73,46.21-46.21,46.21h-1v170.84h-185.7v-170.84h-1c-25.48,0-46.21-20.73-46.21-46.21s20.73-46.21,46.21-46.21c11.4,0,22.34,4.18,30.8,11.77l.67.6.67-.6c8.47-7.59,19.41-11.77,30.8-11.77s21.41,3.84,29.7,10.81l.64.54.64-.54c8.29-6.97,18.84-10.81,29.7-10.81,11.67,0,22.8,4.36,31.35,12.27l.68.63.68-.63c8.55-7.91,19.69-12.27,31.35-12.27M1852.72,259.46c-12.36,0-23.63,4.75-32.03,12.53-8.41-7.78-19.67-12.53-32.03-12.53-11.55,0-22.14,4.15-30.35,11.05-8.2-6.9-18.79-11.05-30.35-11.05s-23.12,4.54-31.47,12.03c-8.35-7.49-19.38-12.03-31.47-12.03-26.08,0-47.21,21.13-47.21,47.21s21.13,47.21,47.21,47.21v170.84h187.7v-170.84c26.08,0,47.21-21.13,47.21-47.21s-21.13-47.21-47.21-47.21h0Z"/>
    </g>
  </g>
</svg>