<?xml version="1.0" encoding="UTF-8"?>
<svg id="Layer_2" data-name="Layer 2" xmlns="http://www.w3.org/2000/svg" viewBox="0 0 1920.5 1080.5">
  <defs>
    <style>
      .cls-1 {
        fill: #e78300;
      }

      .cls-1, .cls-2, .cls-3, .cls-4, .cls-5, .cls-6, .cls-7, .cls-8 {
        stroke-width: 0px;
      }

      .cls-9, .cls-4 {
        fill: #000;
      }

      .cls-9, .cls-10 {
        stroke: #000;
        stroke-miterlimit: 10;
      }

      .cls-2 {
        fill: #f0ab45;
      }

      .cls-3 {
        fill: #c6bf12;
      }

      .cls-5 {
        fill: #6b6c75;
      }

      .cls-10 {
        fill: #f5ff45;
      }

      .cls-6 {
        fill: #e4ffff;
      }

      .cls-7 {
        fill: #c60012;
      }

      .cls-8 {
        fill: #fff;
      }
    </style>
  </defs>
  <g id="Layer_10" data-name="Layer 10">
    <rect class="cls-5" width="1920.5" height="1080.5"/>
    <g>
      <path class="cls-1" d="M1149.49,911.95c-63.31,0-122.82-24.65-167.58-69.42-44.76-44.76-69.42-104.28-69.42-167.58s24.65-122.82,69.42-167.58c44.76-44.76,104.28-69.42,167.58-69.42s122.82,24.65,167.58,69.42c44.76,44.76,69.42,104.28,69.42,167.58s-24.65,122.82-69.42,167.58c-44.76,44.76-104.28,69.42-167.58,69.42Z"/>
      <path class="cls-4" d="M1149.49,438.45c31.93,0,62.9,6.25,92.06,18.58,28.16,11.91,53.45,28.96,75.17,50.68,21.72,21.72,38.77,47.01,50.68,75.17,12.33,29.16,18.58,60.13,18.58,92.06s-6.25,62.9-18.58,92.06c-11.91,28.16-28.96,53.45-50.68,75.17-21.72,21.72-47.01,38.77-75.17,50.68-29.16,12.33-60.13,18.58-92.06,18.58s-62.9-6.25-92.06-18.58c-28.16-11.91-53.45-28.96-75.17-50.68-21.72-21.72-38.77-47.01-50.68-75.17-12.33-29.16-18.58-60.13-18.58-92.06s6.25-62.9,18.58-92.06c11.91-28.16,28.96-53.45,50.68-75.17,21.72-21.72,47.01-38.77,75.17-50.68,29.16-12.33,60.13-18.58,92.06-18.58M1149.49,437.45c-131.17,0-237.5,106.33-237.5,237.5s106.33,237.5,237.5,237.5,237.5-106.33,237.5-237.5-106.33-237.5-237.5-237.5h0Z"/>
    </g>
    <g>
      <path class="cls-7" d="M1149.49,870.95c-108.07,0-196-87.93-196-196s87.93-196,196-196,196,87.93,196,196-87.93,196-196,196Z"/>
      <path class="cls-4" d="M1149.49,479.45c26.39,0,52,5.17,76.1,15.36,23.28,9.85,44.19,23.94,62.14,41.9,17.95,17.95,32.05,38.86,41.9,62.14,10.19,24.1,15.36,49.7,15.36,76.1s-5.17,52-15.36,76.1c-9.85,23.28-23.94,44.19-41.9,62.14-17.95,17.95-38.86,32.05-62.14,41.9-24.1,10.19-49.7,15.36-76.1,15.36s-52-5.17-76.1-15.36c-23.28-9.85-44.19-23.94-62.14-41.9-17.95-17.95-32.05-38.86-41.9-62.14-10.19-24.1-15.36-49.7-15.36-76.1s5.17-52,15.36-76.1c9.85-23.28,23.94-44.19,41.9-62.14s38.86-32.05,62.14-41.9c24.1-10.19,49.7-15.36,76.1-15.36M1149.49,478.45c-108.52,0-196.5,87.98-196.5,196.5s87.98,196.5,196.5,196.5,196.5-87.98,196.5-196.5-87.98-196.5-196.5-196.5h0Z"/>
    </g>
    <g>
      <rect class="cls-3" x="1023.49" y="611.95" width="58" height="8" transform="translate(258.95 1541.93) rotate(-79.74)"/>
      <path class="cls-4" d="M1054.13,587.29l6.89,1.25-10.15,56.09-6.89-1.25,10.15-56.09M1053.32,586.12l-10.51,58.06,8.86,1.6,10.51-58.06-8.86-1.6h0Z"/>
    </g>
    <g>
      <rect class="cls-3" x="997.49" y="649.95" width="58" height="8" transform="translate(110.53 1455.42) rotate(-73.69)"/>
      <path class="cls-4" d="M1031.14,625.62l6.72,1.97-16.01,54.7-6.72-1.97,16.01-54.71M1030.46,624.38l-16.57,56.62,8.64,2.53,16.57-56.62-8.64-2.53h0Z"/>
    </g>
    <g>
      <rect class="cls-3" x="1069.49" y="620.95" width="8" height="58" transform="translate(-137.5 320.84) rotate(-15.99)"/>
      <path class="cls-4" d="M1069.01,621.59l15.7,54.79-6.73,1.93-15.7-54.79,6.73-1.93M1069.69,620.35l-8.65,2.48,16.25,56.72,8.65-2.48-16.25-56.72h0Z"/>
    </g>
    <g>
      <rect class="cls-3" x="1027.49" y="538.95" width="8" height="58" transform="translate(-145.61 536.65) rotate(-27.31)"/>
      <path class="cls-4" d="M1021.53,541.02l26.16,50.64-6.22,3.21-26.16-50.64,6.22-3.21M1021.96,539.68l-8,4.13,27.07,52.42,8-4.13-27.07-52.42h0Z"/>
    </g>
    <g>
      <rect class="cls-3" x="985.49" y="601.95" width="58" height="8" transform="translate(59.37 1301.74) rotate(-66.92)"/>
      <path class="cls-4" d="M1022.44,578.36l6.44,2.74-22.34,52.44-6.44-2.74,22.34-52.44M1021.92,577.05l-23.13,54.28,8.28,3.53,23.13-54.28-8.28-3.53h0Z"/>
    </g>
    <g>
      <rect class="cls-3" x="1062.49" y="535.95" width="8" height="58" transform="translate(-114.36 315.63) rotate(-15.99)"/>
      <path class="cls-4" d="M1062.01,536.59l15.7,54.79-6.73,1.93-15.7-54.79,6.73-1.93M1062.69,535.35l-8.65,2.48,16.25,56.72,8.65-2.48-16.25-56.72h0Z"/>
    </g>
    <g>
      <rect class="cls-3" x="1061.49" y="557.95" width="58" height="8" transform="translate(388.2 1567.81) rotate(-82.34)"/>
      <path class="cls-4" d="M1090.82,533.24l6.94.93-7.6,56.49-6.94-.93,7.6-56.49M1089.97,532.12l-7.86,58.47,8.92,1.2,7.86-58.47-8.92-1.2h0Z"/>
    </g>
    <g>
      <rect class="cls-3" x="1061.49" y="615.95" width="58" height="8" transform="translate(330.72 1618.08) rotate(-82.34)"/>
      <path class="cls-4" d="M1090.82,591.24l6.94.93-7.6,56.49-6.94-.93,7.6-56.49M1089.97,590.12l-7.86,58.47,8.92,1.2,7.86-58.47-8.92-1.2h0Z"/>
    </g>
    <g>
      <rect class="cls-3" x="1110.49" y="608.95" width="8" height="58" transform="translate(-160.77 487.06) rotate(-23.04)"/>
      <path class="cls-4" d="M1106.56,610.36l22.31,52.45-6.44,2.74-22.31-52.45,6.44-2.74M1107.09,609.04l-8.28,3.52,23.09,54.3,8.28-3.52-23.09-54.3h0Z"/>
    </g>
    <g>
      <rect class="cls-3" x="1106.49" y="551.95" width="8" height="58" transform="translate(-117.07 328.37) rotate(-15.99)"/>
      <path class="cls-4" d="M1106.01,552.59l15.7,54.79-6.73,1.93-15.7-54.79,6.73-1.93M1106.69,551.35l-8.65,2.48,16.25,56.72,8.65-2.48-16.25-56.72h0Z"/>
    </g>
    <g>
      <rect class="cls-3" x="1128.49" y="580.95" width="8" height="58" transform="translate(-105.85 261.96) rotate(-12.61)"/>
      <path class="cls-4" d="M1129.69,581.38l12.45,55.62-6.83,1.53-12.45-55.62,6.83-1.53M1130.44,580.18l-8.78,1.97,12.88,57.58,8.78-1.97-12.88-57.58h0Z"/>
    </g>
    <g>
      <rect class="cls-3" x="1179.75" y="610.3" width="58" height="8" transform="translate(389 1694.32) rotate(-79.74)"/>
      <path class="cls-4" d="M1210.38,585.63l6.89,1.25-10.15,56.09-6.89-1.25,10.15-56.09M1209.57,584.47l-10.51,58.06,8.86,1.6,10.51-58.06-8.86-1.6h0Z"/>
    </g>
    <g>
      <rect class="cls-3" x="1153.75" y="648.3" width="58" height="8" transform="translate(224.48 1604.19) rotate(-73.69)"/>
      <path class="cls-4" d="M1187.4,623.96l6.72,1.97-16.01,54.7-6.72-1.97,16.01-54.71M1186.72,622.72l-16.57,56.62,8.64,2.53,16.57-56.62-8.64-2.53h0Z"/>
    </g>
    <g>
      <rect class="cls-3" x="1225.75" y="619.3" width="8" height="58" transform="translate(-131 363.8) rotate(-15.99)"/>
      <path class="cls-4" d="M1225.26,619.94l15.7,54.79-6.73,1.93-15.7-54.79,6.73-1.93M1225.95,618.7l-8.65,2.48,16.25,56.72,8.65-2.48-16.25-56.72h0Z"/>
    </g>
    <g>
      <rect class="cls-3" x="1183.75" y="537.3" width="8" height="58" transform="translate(-127.43 608.16) rotate(-27.31)"/>
      <path class="cls-4" d="M1177.78,539.37l26.16,50.64-6.22,3.21-26.16-50.64,6.22-3.21M1178.21,538.02l-8,4.13,27.07,52.42,8-4.13-27.07-52.42h0Z"/>
    </g>
    <g>
      <rect class="cls-3" x="1141.75" y="600.3" width="58" height="8" transform="translate(155.9 1444.48) rotate(-66.92)"/>
      <path class="cls-4" d="M1178.7,576.71l6.44,2.74-22.34,52.44-6.44-2.74,22.34-52.44M1178.17,575.39l-23.13,54.28,8.28,3.53,23.13-54.28-8.28-3.53h0Z"/>
    </g>
    <g>
      <rect class="cls-3" x="1218.75" y="534.3" width="8" height="58" transform="translate(-107.86 358.58) rotate(-15.99)"/>
      <path class="cls-4" d="M1218.26,534.94l15.7,54.79-6.73,1.93-15.7-54.79,6.73-1.93M1218.95,533.7l-8.65,2.48,16.25,56.72,8.65-2.48-16.25-56.72h0Z"/>
    </g>
    <g>
      <rect class="cls-3" x="1217.75" y="556.3" width="58" height="8" transform="translate(525.27 1721.24) rotate(-82.34)"/>
      <path class="cls-4" d="M1247.08,531.59l6.94.93-7.6,56.49-6.94-.93,7.6-56.49M1246.22,530.46l-7.86,58.47,8.92,1.2,7.86-58.47-8.92-1.2h0Z"/>
    </g>
    <g>
      <rect class="cls-3" x="1217.75" y="614.3" width="58" height="8" transform="translate(467.79 1771.51) rotate(-82.34)"/>
      <path class="cls-4" d="M1247.08,589.59l6.94.93-7.6,56.49-6.94-.93,7.6-56.49M1246.22,588.46l-7.86,58.47,8.92,1.2,7.86-58.47-8.92-1.2h0Z"/>
    </g>
    <g>
      <rect class="cls-3" x="1266.75" y="607.3" width="8" height="58" transform="translate(-147.66 548.08) rotate(-23.04)"/>
      <path class="cls-4" d="M1262.82,608.7l22.31,52.45-6.44,2.74-22.31-52.45,6.44-2.74M1263.35,607.39l-8.28,3.52,23.09,54.3,8.28-3.52-23.09-54.3h0Z"/>
    </g>
    <g>
      <rect class="cls-3" x="1262.75" y="550.3" width="8" height="58" transform="translate(-110.56 371.32) rotate(-15.99)"/>
      <path class="cls-4" d="M1262.26,550.94l15.7,54.79-6.73,1.93-15.7-54.79,6.73-1.93M1262.95,549.7l-8.65,2.48,16.25,56.72,8.65-2.48-16.25-56.72h0Z"/>
    </g>
    <g>
      <rect class="cls-3" x="1284.75" y="579.3" width="8" height="58" transform="translate(-101.72 296.05) rotate(-12.61)"/>
      <path class="cls-4" d="M1285.94,579.72l12.45,55.62-6.83,1.53-12.45-55.62,6.83-1.53M1286.7,578.53l-8.78,1.97,12.88,57.58,8.78-1.97-12.88-57.58h0Z"/>
    </g>
    <g>
      <rect class="cls-3" x="1172.75" y="755.3" width="58" height="8" transform="translate(240.56 1806.61) rotate(-79.74)"/>
      <path class="cls-4" d="M1203.38,730.63l6.89,1.25-10.15,56.09-6.89-1.25,10.15-56.09M1202.57,729.47l-10.51,58.06,8.86,1.6,10.51-58.06-8.86-1.6h0Z"/>
    </g>
    <g>
      <rect class="cls-3" x="1146.75" y="793.3" width="58" height="8" transform="translate(80.28 1701.74) rotate(-73.69)"/>
      <path class="cls-4" d="M1180.4,768.96l6.72,1.97-16.01,54.7-6.72-1.97,16.01-54.71M1179.72,767.72l-16.57,56.62,8.64,2.53,16.57-56.62-8.64-2.53h0Z"/>
    </g>
    <g>
      <rect class="cls-3" x="1218.75" y="764.3" width="8" height="58" transform="translate(-171.21 367.48) rotate(-15.99)"/>
      <path class="cls-4" d="M1218.26,764.94l15.7,54.79-6.73,1.93-15.7-54.79,6.73-1.93M1218.95,763.7l-8.65,2.48,16.25,56.72,8.65-2.48-16.25-56.72h0Z"/>
    </g>
    <g>
      <rect class="cls-3" x="1176.75" y="682.3" width="8" height="58" transform="translate(-194.74 621.12) rotate(-27.31)"/>
      <path class="cls-4" d="M1170.78,684.37l26.16,50.64-6.22,3.21-26.16-50.64,6.22-3.21M1171.21,683.02l-8,4.13,27.07,52.42,8-4.13-27.07-52.42h0Z"/>
    </g>
    <g>
      <rect class="cls-3" x="1134.75" y="745.3" width="58" height="8" transform="translate(18.25 1526.21) rotate(-66.92)"/>
      <path class="cls-4" d="M1171.7,721.71l6.44,2.74-22.34,52.44-6.44-2.74,22.34-52.44M1171.17,720.39l-23.13,54.28,8.28,3.53,23.13-54.28-8.28-3.53h0Z"/>
    </g>
    <g>
      <rect class="cls-3" x="1211.75" y="679.3" width="8" height="58" transform="translate(-148.07 362.26) rotate(-15.99)"/>
      <path class="cls-4" d="M1211.26,679.94l15.7,54.79-6.73,1.93-15.7-54.79,6.73-1.93M1211.95,678.7l-8.65,2.48,16.25,56.72,8.65-2.48-16.25-56.72h0Z"/>
    </g>
    <g>
      <rect class="cls-3" x="1210.75" y="701.3" width="58" height="8" transform="translate(375.5 1839.97) rotate(-82.34)"/>
      <path class="cls-4" d="M1240.08,676.59l6.94.93-7.6,56.49-6.94-.93,7.6-56.49M1239.22,675.46l-7.86,58.47,8.92,1.2,7.86-58.47-8.92-1.2h0Z"/>
    </g>
    <g>
      <rect class="cls-3" x="1210.75" y="759.3" width="58" height="8" transform="translate(318.01 1890.24) rotate(-82.34)"/>
      <path class="cls-4" d="M1240.08,734.59l6.94.93-7.6,56.49-6.94-.93,7.6-56.49M1239.22,733.46l-7.86,58.47,8.92,1.2,7.86-58.47-8.92-1.2h0Z"/>
    </g>
    <g>
      <rect class="cls-3" x="1259.75" y="752.3" width="8" height="58" transform="translate(-204.97 556.9) rotate(-23.04)"/>
      <path class="cls-4" d="M1255.82,753.7l22.31,52.45-6.44,2.74-22.31-52.45,6.44-2.74M1256.35,752.39l-8.28,3.52,23.09,54.3,8.28-3.52-23.09-54.3h0Z"/>
    </g>
    <g>
      <rect class="cls-3" x="1255.75" y="695.3" width="8" height="58" transform="translate(-150.77 375) rotate(-15.99)"/>
      <path class="cls-4" d="M1255.26,695.94l15.7,54.79-6.73,1.93-15.7-54.79,6.73-1.93M1255.95,694.7l-8.65,2.48,16.25,56.72,8.65-2.48-16.25-56.72h0Z"/>
    </g>
    <g>
      <rect class="cls-3" x="1277.75" y="724.3" width="8" height="58" transform="translate(-133.55 298.02) rotate(-12.61)"/>
      <path class="cls-4" d="M1278.94,724.72l12.45,55.62-6.83,1.53-12.45-55.62,6.83-1.53M1279.7,723.53l-8.78,1.97,12.88,57.58,8.78-1.97-12.88-57.58h0Z"/>
    </g>
    <g>
      <rect class="cls-3" x="1033.18" y="762" width="58" height="8" transform="translate(119.25 1674.77) rotate(-79.74)"/>
      <path class="cls-4" d="M1063.81,737.33l6.89,1.25-10.15,56.09-6.89-1.25,10.15-56.09M1063,736.17l-10.51,58.06,8.86,1.6,10.51-58.06-8.86-1.6h0Z"/>
    </g>
    <g>
      <rect class="cls-3" x="1007.18" y="800" width="58" height="8" transform="translate(-26.52 1572.61) rotate(-73.69)"/>
      <path class="cls-4" d="M1040.82,775.67l6.72,1.97-16.01,54.7-6.72-1.97,16.01-54.71M1040.14,774.42l-16.57,56.62,8.64,2.53,16.57-56.62-8.64-2.53h0Z"/>
    </g>
    <g>
      <rect class="cls-3" x="1079.18" y="771" width="8" height="58" transform="translate(-178.48 329.37) rotate(-15.99)"/>
      <path class="cls-4" d="M1078.69,771.64l15.7,54.79-6.73,1.93-15.7-54.79,6.73-1.93M1079.38,770.4l-8.65,2.48,16.25,56.72,8.65-2.48-16.25-56.72h0Z"/>
    </g>
    <g>
      <rect class="cls-3" x="1037.18" y="689" width="8" height="58" transform="translate(-213.38 557.82) rotate(-27.31)"/>
      <path class="cls-4" d="M1031.21,691.07l26.16,50.64-6.22,3.21-26.16-50.64,6.22-3.21M1031.64,689.72l-8,4.13,27.07,52.42,8-4.13-27.07-52.42h0Z"/>
    </g>
    <g>
      <rect class="cls-3" x="995.18" y="752" width="58" height="8" transform="translate(-72.78 1401.88) rotate(-66.92)"/>
      <path class="cls-4" d="M1032.13,728.41l6.44,2.74-22.34,52.44-6.44-2.74,22.34-52.44M1031.6,727.1l-23.13,54.28,8.28,3.53,23.13-54.28-8.28-3.53h0Z"/>
    </g>
    <g>
      <rect class="cls-3" x="1072.18" y="686" width="8" height="58" transform="translate(-155.33 324.15) rotate(-15.99)"/>
      <path class="cls-4" d="M1071.69,686.64l15.7,54.79-6.73,1.93-15.7-54.79,6.73-1.93M1072.38,685.4l-8.65,2.48,16.25,56.72,8.65-2.48-16.25-56.72h0Z"/>
    </g>
    <g>
      <rect class="cls-3" x="1071.18" y="708" width="58" height="8" transform="translate(247.89 1707.46) rotate(-82.34)"/>
      <path class="cls-4" d="M1100.51,683.29l6.94.93-7.6,56.49-6.94-.93,7.6-56.49M1099.65,682.16l-7.86,58.47,8.92,1.2,7.86-58.47-8.92-1.2h0Z"/>
    </g>
    <g>
      <rect class="cls-3" x="1071.18" y="766" width="58" height="8" transform="translate(190.4 1757.73) rotate(-82.34)"/>
      <path class="cls-4" d="M1100.51,741.29l6.94.93-7.6,56.49-6.94-.93,7.6-56.49M1099.65,740.16l-7.86,58.47,8.92,1.2,7.86-58.47-8.92-1.2h0Z"/>
    </g>
    <g>
      <rect class="cls-3" x="1120.18" y="759" width="8" height="58" transform="translate(-218.73 502.81) rotate(-23.04)"/>
      <path class="cls-4" d="M1116.25,760.4l22.31,52.45-6.44,2.74-22.31-52.45,6.44-2.74M1116.77,759.09l-8.28,3.52,23.09,54.3,8.28-3.52-23.09-54.3h0Z"/>
    </g>
    <g>
      <rect class="cls-3" x="1116.18" y="702" width="8" height="58" transform="translate(-158.04 336.89) rotate(-15.99)"/>
      <path class="cls-4" d="M1115.69,702.64l15.7,54.79-6.73,1.93-15.7-54.79,6.73-1.93M1116.38,701.4l-8.65,2.48,16.25,56.72,8.65-2.48-16.25-56.72h0Z"/>
    </g>
    <g>
      <rect class="cls-3" x="1138.18" y="731" width="8" height="58" transform="translate(-138.37 267.69) rotate(-12.61)"/>
      <path class="cls-4" d="M1139.37,731.42l12.45,55.62-6.83,1.53-12.45-55.62,6.83-1.53M1140.13,730.23l-8.78,1.96,12.88,57.58,8.78-1.97-12.88-57.58h0Z"/>
    </g>
  </g>
  <g id="Layer_20" data-name="Layer 20">
    <g>
      <rect class="cls-6" x="1505.62" y="571.61" width="232.96" height="503.35" rx="54.02" ry="54.02"/>
      <path class="cls-4" d="M1684.55,572.11c29.51,0,53.52,24.01,53.52,53.52v395.3c0,29.51-24.01,53.52-53.52,53.52h-124.92c-29.51,0-53.52-24.01-53.52-53.52v-395.3c0-29.51,24.01-53.52,53.52-53.52h124.92M1684.55,571.11h-124.92c-30.11,0-54.52,24.41-54.52,54.52v395.3c0,30.11,24.41,54.52,54.52,54.52h124.92c30.11,0,54.52-24.41,54.52-54.52v-395.3c0-30.11-24.41-54.52-54.52-54.52h0Z"/>
    </g>
    <g>
      <rect class="cls-2" x="1498.61" y="322.23" width="232.96" height="248.37" rx="54.02" ry="54.02"/>
      <path class="cls-4" d="M1677.55,322.73c29.51,0,53.52,24.01,53.52,53.52v140.33c0,29.51-24.01,53.52-53.52,53.52h-124.92c-29.51,0-53.52-24.01-53.52-53.52v-140.33c0-29.51,24.01-53.52,53.52-53.52h124.92M1677.55,321.73h-124.92c-30.11,0-54.52,24.41-54.52,54.52v140.33c0,30.11,24.41,54.52,54.52,54.52h124.92c30.11,0,54.52-24.41,54.52-54.52v-140.33c0-30.11-24.41-54.52-54.52-54.52h0Z"/>
    </g>
    <g>
      <rect class="cls-2" x="1586.87" y="571.61" width="64.85" height="154.51"/>
      <path class="cls-4" d="M1651.22,572.11v153.51h-63.85v-153.51h63.85M1652.22,571.11h-65.85v155.51h65.85v-155.51h0Z"/>
    </g>
    <g>
      <path class="cls-8" d="M1672.53,444.52c-27.15,0-49.23-22.09-49.23-49.23s22.09-49.23,49.23-49.23,49.23,22.09,49.23,49.23-22.09,49.23-49.23,49.23Z"/>
      <path class="cls-4" d="M1672.53,346.55c26.87,0,48.73,21.86,48.73,48.73s-21.86,48.73-48.73,48.73-48.73-21.86-48.73-48.73,21.86-48.73,48.73-48.73M1672.53,345.55c-27.47,0-49.73,22.27-49.73,49.73s22.27,49.73,49.73,49.73,49.73-22.27,49.73-49.73-22.27-49.73-49.73-49.73h0Z"/>
    </g>
    <g>
      <path class="cls-8" d="M1556.25,444.52c-27.15,0-49.23-22.09-49.23-49.23s22.09-49.23,49.23-49.23,49.23,22.09,49.23,49.23-22.09,49.23-49.23,49.23Z"/>
      <path class="cls-4" d="M1556.25,346.55c26.87,0,48.73,21.86,48.73,48.73s-21.86,48.73-48.73,48.73-48.73-21.86-48.73-48.73,21.86-48.73,48.73-48.73M1556.25,345.55c-27.47,0-49.73,22.27-49.73,49.73s22.27,49.73,49.73,49.73,49.73-22.27,49.73-49.73-22.27-49.73-49.73-49.73h0Z"/>
    </g>
    <g>
      <path class="cls-4" d="M1661.15,418.61c-6.36,0-11.54-5.18-11.54-11.54s5.18-11.54,11.54-11.54,11.54,5.18,11.54,11.54-5.18,11.54-11.54,11.54Z"/>
      <path class="cls-4" d="M1661.15,396.03c6.09,0,11.04,4.95,11.04,11.04s-4.95,11.04-11.04,11.04-11.04-4.95-11.04-11.04,4.95-11.04,11.04-11.04M1661.15,395.03c-6.65,0-12.04,5.39-12.04,12.04s5.39,12.04,12.04,12.04,12.04-5.39,12.04-12.04-5.39-12.04-12.04-12.04h0Z"/>
    </g>
    <g>
      <path class="cls-4" d="M1543.51,418.66c-6.36,0-11.54-5.18-11.54-11.54s5.18-11.54,11.54-11.54,11.54,5.18,11.54,11.54-5.18,11.54-11.54,11.54Z"/>
      <path class="cls-4" d="M1543.51,396.07c6.09,0,11.04,4.95,11.04,11.04s-4.95,11.04-11.04,11.04-11.04-4.95-11.04-11.04,4.95-11.04,11.04-11.04M1543.51,395.07c-6.65,0-12.04,5.39-12.04,12.04s5.39,12.04,12.04,12.04,12.04-5.39,12.04-12.04-5.39-12.04-12.04-12.04h0Z"/>
    </g>
    <g>
      <path class="cls-8" d="M1498.61,374.47v-212.95h-.5c-32.17,0-58.34-26.17-58.34-58.34s26.17-58.34,58.34-58.34c14.39,0,28.2,5.28,38.89,14.86l.33.3.33-.3c10.69-9.58,24.51-14.86,38.89-14.86s27.04,4.85,37.5,13.65l.32.27.32-.27c10.47-8.81,23.79-13.65,37.5-13.65,14.73,0,28.79,5.5,39.59,15.49l.34.31.34-.31c10.8-9.99,24.85-15.49,39.59-15.49,32.17,0,58.34,26.17,58.34,58.34s-26.17,58.34-58.34,58.34h-.5v212.95h-232.96Z"/>
      <path class="cls-4" d="M1732.07,45.34c31.89,0,57.84,25.95,57.84,57.84s-25.95,57.84-57.84,57.84h-1v212.95h-231.96v-212.95h-1c-31.89,0-57.84-25.95-57.84-57.84s25.95-57.84,57.84-57.84c14.27,0,27.96,5.23,38.56,14.73l.67.6.67-.6c10.6-9.5,24.29-14.73,38.56-14.73s26.8,4.81,37.18,13.54l.64.54.64-.54c10.38-8.73,23.58-13.54,37.18-13.54,14.61,0,28.55,5.45,39.25,15.35l.68.63.68-.63c10.7-9.9,24.64-15.35,39.25-15.35M1732.07,44.34c-15.41,0-29.45,5.93-39.93,15.62-10.48-9.69-24.52-15.62-39.93-15.62-14.4,0-27.6,5.17-37.83,13.77-10.23-8.6-23.42-13.77-37.83-13.77s-28.82,5.66-39.23,14.99c-10.41-9.33-24.15-14.99-39.23-14.99-32.5,0-58.84,26.34-58.84,58.84s26.34,58.84,58.84,58.84v212.95h233.96v-212.95c32.5,0,58.84-26.34,58.84-58.84s-26.34-58.84-58.84-58.84h0Z"/>
    </g>
    <path class="cls-9" d="M1555.55,539.95c81.83-21.9,114.36-3.66,105.59,13.72"/>
    <g>
      <path class="cls-4" d="M1612.28,522.56c-13.31,0-54.17-9.29-91.09-20.71-22.16-6.86-75.08-24.57-87.76-40.98-2.31-2.99-3.14-5.78-2.48-8.32,1.68-6.45,11.52-9.71,29.25-9.71,26.55,0,66.52,7.24,98.64,13.07,22.66,4.11,42.24,7.66,51.41,7.66h0c.48,0,.92,0,1.34-.03,7.87-.36,25.31-4.44,47.4-9.62,36.37-8.52,81.64-19.12,109.88-19.12,14.77,0,23.2,3,25.05,8.92.81,2.59.1,5.5-2.1,8.65-11.63,16.62-60.37,35.62-88.38,45.47-39.6,13.92-79.28,24.19-90.11,24.7-.32.02-.67.02-1.03.02h0Z"/>
      <path class="cls-4" d="M1768.87,434.3v1c14.53,0,22.79,2.88,24.57,8.57.76,2.44.08,5.2-2.03,8.22-4.96,7.08-23,22.39-88.14,45.29-39.56,13.91-79.17,24.16-89.97,24.67-.31.01-.65.02-1.01.02-13.27,0-54.07-9.28-90.95-20.69-46.75-14.46-78.65-29.33-87.51-40.81-2.21-2.86-3.01-5.51-2.39-7.88,1.62-6.2,11.29-9.34,28.76-9.34,26.5,0,66.44,7.24,98.54,13.06,22.69,4.11,42.29,7.67,51.51,7.67.49,0,.94,0,1.37-.03,7.92-.36,25.38-4.45,47.49-9.63,36.35-8.51,81.59-19.11,109.76-19.11v-1M1768.87,434.3c-45.44,0-136.56,27.79-157.3,28.74-.41.02-.85.03-1.32.03-22.17,0-104.84-20.72-150.05-20.72-16.35,0-27.8,2.71-29.73,10.09-7.26,27.84,153.65,70.63,181.82,70.63.37,0,.73,0,1.06-.02,24.91-1.17,190.01-50.79,181.05-79.47-2.09-6.69-11.69-9.27-25.53-9.27h0Z"/>
    </g>
  </g>
  <g id="Layer_11" data-name="Layer 11">
    <path class="cls-10" d="M992.81,750.27c-15.31-12.02-26.12-23.16-37.42-39.03,16.93-11.21,36.44-20.21,53.83-30.98,6.88,10.62,8.4,10.65,18.2,17.8-11.1,17.8-23.25,34.58-34.6,52.21Z"/>
    <path class="cls-8" d="M1009.47,685.19c-54.55,24.37-46.07,32.86-46.07,32.86l46.07-32.86Z"/>
    <path class="cls-10" d="M1192.15,737.55c-11.84,15.09-22.83,25.75-38.47,36.89-11.05-16.69-19.92-35.92-30.53-53.05,10.47-6.78,10.49-8.28,17.55-17.93,17.54,10.94,34.08,22.92,51.45,34.1Z"/>
    <path class="cls-8" d="M1128.01,721.14c24.02,53.77,32.39,45.4,32.39,45.4l-32.39-45.4Z"/>
    <path class="cls-10" d="M1319.48,717.24c-18.93,7.99-34.75,12.26-55.19,14.57-1.68-21.37,0-43.98-1.04-65.54,13.32-.91,14.13-2.31,25.75-7.68,10.75,19.36,20.02,39.16,30.48,58.66Z"/>
    <path class="cls-8" d="M1267.93,668.56c-5.43,62.83,6.75,59.34,6.75,59.34l-6.75-59.34Z"/>
    <path class="cls-10" d="M1106.78,665.54c11.84-15.09,22.83-25.75,38.47-36.89,11.05,16.69,19.92,35.92,30.53,53.05-10.47,6.78-10.49,8.28-17.55,17.93-17.54-10.94-34.08-22.92-51.45-34.1Z"/>
    <path class="cls-8" d="M1170.91,681.95c-24.02-53.77-32.39-45.4-32.39-45.4l32.39,45.4Z"/>
    <path class="cls-10" d="M1111.04,822.58c-19.39,8.18-35.59,12.55-56.52,14.92-1.72-21.89,0-45.04-1.07-67.12,13.64-.93,14.47-2.36,26.37-7.87,11.01,19.83,20.5,40.11,31.22,60.07Z"/>
    <path class="cls-8" d="M1058.25,772.72c-5.56,64.35,6.92,60.77,6.92,60.77l-6.92-60.77Z"/>
    <path class="cls-10" d="M1223.39,842.48c-17.57-7.72-30.62-15.71-45.3-28.08,13.42-14.85,29.83-28.23,43.79-42.77,9.17,8.45,10.63,8.1,21.74,12.53-6.24,19.71-13.71,38.71-20.23,58.32Z"/>
    <path class="cls-8" d="M1223.33,776.28c-46.1,36.64-35.92,42.66-35.92,42.66l35.92-42.66Z"/>
    <path class="cls-10" d="M1051.38,569.34c12.03,14.95,19.93,28.05,27.25,45.8-18.75,7-39.48,11.3-58.57,17.77-4.24-11.73-5.7-12.09-13.51-21.14,14.62-14.62,30.02-28.03,44.83-42.43Z"/>
    <path class="cls-8" d="M1020.91,628.11c57.8-11.26,51.54-21.3,51.54-21.3l-51.54,21.3Z"/>
    <path class="cls-10" d="M1098.12,737.25c-19.43-1.15-34.67-4.15-53-10.75,7.53-18.86,18.43-37.37,26.58-56.13,11.7,4.81,12.97,3.96,25.1,4.26,1.02,20.95.6,41.67,1.32,62.62Z"/>
    <path class="cls-8" d="M1074.72,674.28c-30.94,51.12-19.13,53.25-19.13,53.25l19.13-53.25Z"/>
    <path class="cls-10" d="M1244.78,670.01c-18.13-5.27-31.89-11.38-47.8-21.56,11.18-16.22,25.46-31.37,37.21-47.35,10.03,7.06,11.41,6.54,22.81,9.43-3.55,20.03-8.4,39.53-12.22,59.49Z"/>
    <path class="cls-8" d="M1236.2,605.44c-40.25,41.67-29.54,46.24-29.54,46.24l29.54-46.24Z"/>
    <path class="cls-10" d="M1129.04,562.25c-18.62-3.09-33.01-7.55-50.01-15.78,9.19-17.42,21.59-34.15,31.37-51.41,10.79,5.83,12.1,5.15,23.77,6.68-1.16,20.31-3.68,40.24-5.13,60.51Z"/>
    <path class="cls-8" d="M1112.92,499.14c-35.07,46.13-23.89,49.4-23.89,49.4l23.89-49.4Z"/>
    <path class="cls-10" d="M1193.66,581.23c-15.43,7.89-28.48,12.46-45.52,15.66-2.73-17.87-2.72-37-4.93-55.07,11.15-1.59,11.74-2.81,21.18-8.05,10.24,15.62,19.26,31.71,29.26,47.46Z"/>
    <path class="cls-8" d="M1147.3,543.47c-.69,53.19,9.35,49.5,9.35,49.5l-9.35-49.5Z"/>
    <path class="cls-10" d="M1256.7,556.53c-16.23,8.35-29.97,13.21-47.91,16.63-2.93-18.82-2.97-38.97-5.35-58,11.74-1.71,12.36-3,22.3-8.55,10.83,16.43,20.38,33.35,30.97,49.91Z"/>
    <path class="cls-8" d="M1207.74,516.88c-.57,56.04,9.99,52.12,9.99,52.12l-9.99-52.12Z"/>
  </g>
</svg>