<?xml version="1.0" encoding="UTF-8"?>
<svg id="Layer_2" data-name="Layer 2" xmlns="http://www.w3.org/2000/svg" viewBox="0 0 1920.5 1091.62">
  <defs>
    <style>
      .cls-1 {
        fill: #e78300;
      }

      .cls-1, .cls-2, .cls-3, .cls-4, .cls-5, .cls-6, .cls-7, .cls-8 {
        stroke-width: 0px;
      }

      .cls-9, .cls-10, .cls-11 {
        stroke: #000;
        stroke-miterlimit: 10;
      }

      .cls-9, .cls-4 {
        fill: #000;
      }

      .cls-10 {
        fill: #ce1600;
      }

      .cls-2 {
        fill: #f0ab45;
      }

      .cls-11 {
        fill: #f11600;
      }

      .cls-3 {
        fill: #c6bf12;
      }

      .cls-5 {
        fill: #6b6c75;
      }

      .cls-6 {
        fill: #e4ffff;
      }

      .cls-7 {
        fill: #c60012;
      }

      .cls-8 {
        fill: #fff;
      }
    </style>
  </defs>
  <g id="game_over" data-name="game over">
    <rect class="cls-5" width="1920.5" height="1080.5"/>
  </g>
  <g id="Dimensions">
    <g>
      <path class="cls-2" d="M1574.28,338.4h124.92c29.82,0,54.02,24.21,54.02,54.02v140.33c0,29.82-24.21,54.02-54.02,54.02h-124.91c-29.82,0-54.02-24.21-54.02-54.02v-140.33c0-29.82,24.21-54.02,54.02-54.02Z"/>
      <path class="cls-4" d="M1699.19,338.9c29.51,0,53.52,24.01,53.52,53.52v140.33c0,29.51-24.01,53.52-53.52,53.52h-124.92c-29.51,0-53.52-24.01-53.52-53.52v-140.33c0-29.51,24.01-53.52,53.52-53.52h124.92M1699.19,337.9h-124.92c-30.11,0-54.52,24.41-54.52,54.52v140.33c0,30.11,24.41,54.52,54.52,54.52h124.92c30.11,0,54.52-24.41,54.52-54.52v-140.33c0-30.11-24.41-54.52-54.52-54.52h0Z"/>
    </g>
    <g>
      <path class="cls-8" d="M1577.9,460.68c-27.15,0-49.23-22.09-49.23-49.23s22.09-49.23,49.23-49.23,49.23,22.09,49.23,49.23-22.09,49.23-49.23,49.23Z"/>
      <path class="cls-4" d="M1577.9,362.71c26.87,0,48.73,21.86,48.73,48.73s-21.86,48.73-48.73,48.73-48.73-21.86-48.73-48.73,21.86-48.73,48.73-48.73M1577.9,361.71c-27.47,0-49.73,22.27-49.73,49.73s22.27,49.73,49.73,49.73,49.73-22.27,49.73-49.73-22.27-49.73-49.73-49.73h0Z"/>
    </g>
    <g>
      <path class="cls-8" d="M1694.18,460.68c-27.15,0-49.23-22.09-49.23-49.23s22.09-49.23,49.23-49.23,49.23,22.09,49.23,49.23-22.09,49.23-49.23,49.23Z"/>
      <path class="cls-4" d="M1694.18,362.71c26.87,0,48.73,21.86,48.73,48.73s-21.86,48.73-48.73,48.73-48.73-21.86-48.73-48.73,21.86-48.73,48.73-48.73M1694.18,361.71c-27.47,0-49.73,22.27-49.73,49.73s22.27,49.73,49.73,49.73,49.73-22.27,49.73-49.73-22.27-49.73-49.73-49.73h0Z"/>
    </g>
    <g>
      <path class="cls-4" d="M1633.93,538.72c-13.31,0-54.17-9.29-91.09-20.71-22.16-6.85-75.08-24.57-87.76-40.98-2.31-2.99-3.14-5.78-2.48-8.32,1.68-6.45,11.52-9.71,29.25-9.71,26.55,0,66.52,7.24,98.64,13.07,22.67,4.11,42.24,7.66,51.41,7.66h0c.48,0,.92,0,1.34-.03,7.87-.36,25.32-4.44,47.4-9.62,36.37-8.52,81.64-19.12,109.88-19.12,14.77,0,23.2,3,25.05,8.92.81,2.59.1,5.5-2.1,8.66-11.63,16.62-60.37,35.62-88.38,45.47-39.6,13.92-79.28,24.19-90.11,24.7-.32.01-.67.02-1.03.02h0Z"/>
      <path class="cls-4" d="M1790.51,450.46v1c14.53,0,22.79,2.88,24.57,8.57.76,2.44.08,5.2-2.03,8.22-4.96,7.08-23,22.39-88.14,45.29-39.56,13.91-79.17,24.16-89.97,24.67-.31.01-.65.02-1.01.02-13.27,0-54.07-9.28-90.95-20.69-46.75-14.46-78.65-29.33-87.51-40.81-2.21-2.86-3.01-5.51-2.39-7.88,1.62-6.2,11.29-9.34,28.76-9.34,26.5,0,66.44,7.24,98.54,13.06,22.69,4.11,42.29,7.67,51.51,7.67.49,0,.94,0,1.37-.03,7.92-.36,25.38-4.45,47.49-9.63,36.35-8.51,81.59-19.11,109.76-19.11v-1M1790.51,450.46c-45.44,0-136.56,27.79-157.3,28.74-.41.02-.85.03-1.32.03-22.17,0-104.84-20.72-150.05-20.72-16.35,0-27.8,2.71-29.73,10.09-7.26,27.84,153.65,70.63,181.82,70.63.37,0,.73,0,1.06-.02,24.91-1.17,190.01-50.79,181.05-79.47-2.09-6.69-11.69-9.27-25.53-9.27h0Z"/>
    </g>
    <g>
      <path class="cls-4" d="M1565.15,434.82c-6.36,0-11.54-5.18-11.54-11.54s5.18-11.54,11.54-11.54,11.54,5.18,11.54,11.54-5.18,11.54-11.54,11.54Z"/>
      <path class="cls-4" d="M1565.15,412.24c6.09,0,11.04,4.95,11.04,11.04s-4.95,11.04-11.04,11.04-11.04-4.95-11.04-11.04,4.95-11.04,11.04-11.04M1565.15,411.24c-6.65,0-12.04,5.39-12.04,12.04s5.39,12.04,12.04,12.04,12.04-5.39,12.04-12.04-5.39-12.04-12.04-12.04h0Z"/>
    </g>
    <g>
      <path class="cls-4" d="M1682.79,434.78c-6.36,0-11.54-5.18-11.54-11.54s5.18-11.54,11.54-11.54,11.54,5.18,11.54,11.54-5.18,11.54-11.54,11.54Z"/>
      <path class="cls-4" d="M1682.79,412.19c6.09,0,11.04,4.95,11.04,11.04s-4.95,11.04-11.04,11.04-11.04-4.95-11.04-11.04,4.95-11.04,11.04-11.04M1682.79,411.19c-6.65,0-12.04,5.39-12.04,12.04s5.39,12.04,12.04,12.04,12.04-5.39,12.04-12.04-5.39-12.04-12.04-12.04h0Z"/>
    </g>
    <circle class="cls-9" cx="1621.33" cy="561.35" r="15.41"/>
    <g>
      <path class="cls-6" d="M1581.28,587.77h124.92c29.82,0,54.02,24.21,54.02,54.02v395.3c0,29.82-24.21,54.02-54.02,54.02h-124.91c-29.82,0-54.02-24.21-54.02-54.02v-395.3c0-29.82,24.21-54.02,54.02-54.02Z"/>
      <path class="cls-4" d="M1706.2,588.27c29.51,0,53.52,24.01,53.52,53.52v395.3c0,29.51-24.01,53.52-53.52,53.52h-124.92c-29.51,0-53.52-24.01-53.52-53.52v-395.3c0-29.51,24.01-53.52,53.52-53.52h124.92M1706.2,587.27h-124.92c-30.11,0-54.52,24.41-54.52,54.52v395.3c0,30.11,24.41,54.52,54.52,54.52h124.92c30.11,0,54.52-24.41,54.52-54.52v-395.3c0-30.11-24.41-54.52-54.52-54.52h0Z"/>
    </g>
    <g>
      <rect class="cls-2" x="1608.52" y="587.77" width="64.84" height="154.51"/>
      <path class="cls-4" d="M1672.86,588.27v153.51h-63.85v-153.51h63.85M1673.86,587.27h-65.85v155.51h65.85v-155.51h0Z"/>
    </g>
    <g>
      <path class="cls-8" d="M1520.26,390.63v-212.95h-.5c-32.17,0-58.34-26.17-58.34-58.34s26.17-58.34,58.34-58.34c14.39,0,28.2,5.28,38.89,14.86l.33.3.33-.3c10.69-9.58,24.5-14.86,38.89-14.86s27.04,4.85,37.5,13.65l.32.27.32-.27c10.47-8.81,23.79-13.65,37.5-13.65,14.73,0,28.79,5.5,39.59,15.49l.34.31.34-.31c10.8-9.99,24.86-15.49,39.59-15.49,32.17,0,58.34,26.17,58.34,58.34s-26.17,58.34-58.34,58.34h-.5v212.95h-232.96Z"/>
      <path class="cls-4" d="M1753.72,61.51c31.89,0,57.84,25.95,57.84,57.84s-25.95,57.84-57.84,57.84h-1v212.95h-231.96v-212.95h-1c-31.89,0-57.84-25.95-57.84-57.84s25.95-57.84,57.84-57.84c14.26,0,27.96,5.23,38.56,14.73l.67.6.67-.6c10.6-9.5,24.29-14.73,38.56-14.73s26.8,4.81,37.18,13.54l.64.54.64-.54c10.38-8.73,23.58-13.54,37.18-13.54,14.61,0,28.55,5.45,39.25,15.35l.68.63.68-.63c10.7-9.9,24.64-15.35,39.25-15.35M1753.72,60.51c-15.41,0-29.45,5.93-39.93,15.62-10.48-9.69-24.52-15.62-39.93-15.62-14.4,0-27.6,5.17-37.83,13.77-10.23-8.6-23.42-13.77-37.83-13.77s-28.82,5.66-39.23,14.99c-10.41-9.33-24.15-14.99-39.23-14.99-32.5,0-58.84,26.34-58.84,58.84s26.34,58.84,58.84,58.84v212.95h233.96v-212.95c32.5,0,58.84-26.34,58.84-58.84s-26.34-58.84-58.84-58.84h0Z"/>
    </g>
  </g>
  <g id="Layer_17" data-name="Layer 17">
    <g>
      <path class="cls-1" d="M1136.17,987.32c-63.3,0-122.82-24.65-167.58-69.42-44.76-44.76-69.42-104.28-69.42-167.58s24.65-122.82,69.42-167.58,104.28-69.42,167.58-69.42,122.82,24.65,167.58,69.42c44.76,44.76,69.42,104.28,69.42,167.58s-24.65,122.82-69.42,167.58c-44.76,44.76-104.28,69.42-167.58,69.42Z"/>
      <path class="cls-4" d="M1136.17,513.82c31.93,0,62.9,6.25,92.06,18.58,28.16,11.91,53.45,28.96,75.17,50.68,21.72,21.72,38.77,47.01,50.68,75.17,12.33,29.16,18.58,60.13,18.58,92.06s-6.25,62.9-18.58,92.06c-11.91,28.16-28.96,53.45-50.68,75.17-21.72,21.72-47.01,38.77-75.17,50.68-29.16,12.33-60.13,18.58-92.06,18.58s-62.9-6.25-92.06-18.58c-28.16-11.91-53.45-28.96-75.17-50.68-21.72-21.72-38.77-47.01-50.68-75.17-12.33-29.16-18.58-60.13-18.58-92.06s6.25-62.9,18.58-92.06c11.91-28.16,28.96-53.45,50.68-75.17,21.72-21.72,47.01-38.77,75.17-50.68,29.16-12.33,60.13-18.58,92.06-18.58M1136.17,512.82c-131.17,0-237.5,106.33-237.5,237.5s106.33,237.5,237.5,237.5,237.5-106.33,237.5-237.5-106.33-237.5-237.5-237.5h0Z"/>
    </g>
    <g>
      <path class="cls-7" d="M1136.17,946.32c-108.08,0-196-87.92-196-196s87.92-196,196-196,196,87.92,196,196-87.92,196-196,196Z"/>
      <path class="cls-4" d="M1136.17,554.82c26.39,0,52,5.17,76.1,15.36,23.28,9.85,44.19,23.94,62.14,41.9,17.95,17.95,32.05,38.86,41.9,62.14,10.19,24.1,15.36,49.7,15.36,76.1s-5.17,52-15.36,76.1c-9.85,23.28-23.94,44.19-41.9,62.14-17.95,17.95-38.86,32.05-62.14,41.9-24.1,10.19-49.7,15.36-76.1,15.36s-52-5.17-76.1-15.36c-23.28-9.85-44.19-23.94-62.14-41.9-17.95-17.95-32.05-38.86-41.9-62.14-10.19-24.1-15.36-49.7-15.36-76.1s5.17-52,15.36-76.1c9.85-23.28,23.94-44.19,41.9-62.14,17.95-17.95,38.86-32.05,62.14-41.9,24.1-10.19,49.7-15.36,76.1-15.36M1136.17,553.82c-108.52,0-196.5,87.98-196.5,196.5s87.98,196.5,196.5,196.5,196.5-87.98,196.5-196.5-87.98-196.5-196.5-196.5h0Z"/>
    </g>
    <g>
      <rect class="cls-3" x="1010.17" y="687.32" width="58" height="8" transform="translate(173.82 1590.76) rotate(-79.74)"/>
      <path class="cls-4" d="M1040.81,662.66l6.89,1.25-10.15,56.09-6.89-1.25,10.15-56.09M1040,661.49l-10.51,58.06,8.86,1.6,10.51-58.06-8.86-1.6h0Z"/>
    </g>
    <g>
      <rect class="cls-3" x="984.17" y="725.32" width="58" height="8" transform="translate(28.62 1496.84) rotate(-73.69)"/>
      <path class="cls-4" d="M1017.82,700.99l6.72,1.97-16.01,54.7-6.72-1.97,16.01-54.71M1017.14,699.75l-16.57,56.62,8.64,2.53,16.57-56.62-8.64-2.53h0Z"/>
    </g>
    <g>
      <rect class="cls-3" x="1056.17" y="696.32" width="8" height="58" transform="translate(-158.8 320.16) rotate(-15.99)"/>
      <path class="cls-4" d="M1055.69,696.96l15.7,54.79-6.73,1.93-15.7-54.79,6.73-1.93M1056.37,695.73l-8.65,2.48,16.25,56.72,8.65-2.48-16.25-56.72h0Z"/>
    </g>
    <g>
      <rect class="cls-3" x="1014.17" y="614.32" width="8" height="58" transform="translate(-181.68 538.97) rotate(-27.32)"/>
      <path class="cls-4" d="M1008.21,616.4l26.16,50.64-6.22,3.21-26.16-50.64,6.22-3.21M1008.64,615.05l-8,4.13,27.07,52.42,8-4.13-27.07-52.42h0Z"/>
    </g>
    <g>
      <rect class="cls-3" x="972.17" y="677.32" width="58" height="8" transform="translate(-18.06 1335.33) rotate(-66.92)"/>
      <path class="cls-4" d="M1009.13,653.73l6.44,2.74-22.34,52.44-6.44-2.74,22.34-52.44M1008.6,652.42l-23.13,54.28,8.28,3.53,23.13-54.28-8.28-3.53h0Z"/>
    </g>
    <g>
      <rect class="cls-3" x="1049.17" y="611.32" width="8" height="58" transform="translate(-135.66 314.94) rotate(-15.99)"/>
      <path class="cls-4" d="M1048.69,611.96l15.7,54.79-6.73,1.93-15.7-54.79,6.73-1.93M1049.37,610.73l-8.65,2.48,16.25,56.72,8.65-2.48-16.25-56.72h0Z"/>
    </g>
    <g>
      <rect class="cls-3" x="1048.17" y="633.32" width="58" height="8" transform="translate(301.97 1619.94) rotate(-82.34)"/>
      <path class="cls-4" d="M1077.5,608.61l6.94.93-7.6,56.49-6.94-.93,7.6-56.49M1076.65,607.49l-7.86,58.47,8.92,1.2,7.86-58.47-8.92-1.2h0Z"/>
    </g>
    <g>
      <rect class="cls-3" x="1048.17" y="691.32" width="58" height="8" transform="translate(244.48 1670.21) rotate(-82.34)"/>
      <path class="cls-4" d="M1077.5,666.61l6.94.93-7.6,56.49-6.94-.93,7.6-56.49M1076.65,665.49l-7.86,58.47,8.92,1.2,7.86-58.47-8.92-1.2h0Z"/>
    </g>
    <g>
      <rect class="cls-3" x="1097.17" y="684.32" width="8" height="58" transform="translate(-191.31 487.74) rotate(-23.03)"/>
      <path class="cls-4" d="M1093.24,685.73l22.31,52.45-6.44,2.74-22.31-52.45,6.44-2.74M1093.77,684.42l-8.28,3.52,23.09,54.3,8.28-3.52-23.09-54.3h0Z"/>
    </g>
    <g>
      <rect class="cls-3" x="1093.17" y="627.32" width="8" height="58" transform="translate(-138.36 327.68) rotate(-15.99)"/>
      <path class="cls-4" d="M1092.69,627.96l15.7,54.79-6.73,1.93-15.7-54.79,6.73-1.93M1093.37,626.73l-8.65,2.48,16.25,56.72,8.65-2.48-16.25-56.72h0Z"/>
    </g>
    <g>
      <rect class="cls-3" x="1115.17" y="656.32" width="8" height="58" transform="translate(-122.64 260.93) rotate(-12.61)"/>
      <path class="cls-4" d="M1116.37,656.75l12.45,55.62-6.83,1.53-12.45-55.62,6.83-1.53M1117.12,655.55l-8.78,1.97,12.88,57.58,8.78-1.97-12.88-57.58h0Z"/>
    </g>
    <g>
      <rect class="cls-3" x="1166.43" y="685.67" width="58" height="8" transform="translate(303.89 1743.17) rotate(-79.74)"/>
      <path class="cls-4" d="M1197.06,661l6.89,1.25-10.15,56.09-6.89-1.25,10.15-56.09M1196.26,659.84l-10.51,58.06,8.86,1.6,10.51-58.06-8.86-1.6h0Z"/>
    </g>
    <g>
      <rect class="cls-3" x="1140.43" y="723.67" width="58" height="8" transform="translate(142.56 1645.6) rotate(-73.69)"/>
      <path class="cls-4" d="M1174.08,699.33l6.72,1.97-16.01,54.7-6.72-1.97,16.01-54.71M1173.4,698.09l-16.57,56.62,8.64,2.53,16.57-56.62-8.64-2.53h0Z"/>
    </g>
    <g>
      <rect class="cls-3" x="1212.43" y="694.67" width="8" height="58" transform="translate(-152.3 363.15) rotate(-15.99)"/>
      <path class="cls-4" d="M1211.94,695.31l15.7,54.79-6.73,1.93-15.7-54.79,6.73-1.93M1212.63,694.07l-8.65,2.48,16.25,56.72,8.65-2.48-16.25-56.72h0Z"/>
    </g>
    <g>
      <rect class="cls-3" x="1170.43" y="612.67" width="8" height="58" transform="translate(-163.5 610.49) rotate(-27.32)"/>
      <path class="cls-4" d="M1164.46,614.74l26.16,50.64-6.22,3.21-26.16-50.64,6.22-3.21M1164.89,613.39l-8,4.13,27.07,52.42,8-4.13-27.07-52.42h0Z"/>
    </g>
    <g>
      <rect class="cls-3" x="1128.43" y="675.67" width="58" height="8" transform="translate(78.49 1478.09) rotate(-66.92)"/>
      <path class="cls-4" d="M1165.38,652.08l6.44,2.74-22.34,52.44-6.44-2.74,22.34-52.44M1164.85,650.77l-23.13,54.28,8.28,3.53,23.13-54.28-8.28-3.53h0Z"/>
    </g>
    <g>
      <rect class="cls-3" x="1205.43" y="609.67" width="8" height="58" transform="translate(-129.15 357.93) rotate(-15.99)"/>
      <path class="cls-4" d="M1204.94,610.31l15.7,54.79-6.73,1.93-15.7-54.79,6.73-1.93M1205.63,609.07l-8.65,2.48,16.25,56.72,8.65-2.48-16.25-56.72h0Z"/>
    </g>
    <g>
      <rect class="cls-3" x="1204.43" y="631.67" width="58" height="8" transform="translate(439.03 1773.37) rotate(-82.34)"/>
      <path class="cls-4" d="M1233.76,606.96l6.94.93-7.6,56.49-6.94-.93,7.6-56.49M1232.9,605.83l-7.86,58.47,8.92,1.2,7.86-58.47-8.92-1.2h0Z"/>
    </g>
    <g>
      <rect class="cls-3" x="1204.43" y="689.67" width="58" height="8" transform="translate(381.55 1823.64) rotate(-82.34)"/>
      <path class="cls-4" d="M1233.76,664.96l6.94.93-7.6,56.49-6.94-.93,7.6-56.49M1232.9,663.83l-7.86,58.47,8.92,1.2,7.86-58.47-8.92-1.2h0Z"/>
    </g>
    <g>
      <rect class="cls-3" x="1253.43" y="682.67" width="8" height="58" transform="translate(-178.21 548.75) rotate(-23.03)"/>
      <path class="cls-4" d="M1249.5,684.07l22.31,52.45-6.44,2.74-22.31-52.45,6.44-2.74M1250.03,682.76l-8.28,3.52,23.09,54.3,8.28-3.52-23.09-54.3h0Z"/>
    </g>
    <g>
      <rect class="cls-3" x="1249.43" y="625.67" width="8" height="58" transform="translate(-131.86 370.67) rotate(-15.99)"/>
      <path class="cls-4" d="M1248.94,626.31l15.7,54.79-6.73,1.93-15.7-54.79,6.73-1.93M1249.63,625.07l-8.65,2.48,16.25,56.72,8.65-2.48-16.25-56.72h0Z"/>
    </g>
    <g>
      <rect class="cls-3" x="1271.43" y="654.67" width="8" height="58" transform="translate(-118.51 295.01) rotate(-12.61)"/>
      <path class="cls-4" d="M1272.62,655.09l12.45,55.62-6.83,1.53-12.45-55.62,6.83-1.53M1273.38,653.9l-8.78,1.97,12.88,57.58,8.78-1.97-12.88-57.58h0Z"/>
    </g>
    <g>
      <rect class="cls-3" x="1159.43" y="830.67" width="58" height="8" transform="translate(155.46 1855.46) rotate(-79.74)"/>
      <path class="cls-4" d="M1190.06,806l6.89,1.25-10.15,56.09-6.89-1.25,10.15-56.09M1189.26,804.84l-10.51,58.06,8.86,1.6,10.51-58.06-8.86-1.6h0Z"/>
    </g>
    <g>
      <rect class="cls-3" x="1133.43" y="868.67" width="58" height="8" transform="translate(-1.64 1743.15) rotate(-73.69)"/>
      <path class="cls-4" d="M1167.08,844.33l6.72,1.97-16.01,54.7-6.72-1.97,16.01-54.71M1166.4,843.09l-16.57,56.62,8.64,2.53,16.57-56.62-8.64-2.53h0Z"/>
    </g>
    <g>
      <rect class="cls-3" x="1205.43" y="839.67" width="8" height="58" transform="translate(-192.52 366.83) rotate(-15.99)"/>
      <path class="cls-4" d="M1204.94,840.31l15.7,54.79-6.73,1.93-15.7-54.79,6.73-1.93M1205.63,839.07l-8.65,2.48,16.25,56.72,8.65-2.48-16.25-56.72h0Z"/>
    </g>
    <g>
      <rect class="cls-3" x="1163.43" y="757.67" width="8" height="58" transform="translate(-230.82 623.45) rotate(-27.32)"/>
      <path class="cls-4" d="M1157.46,759.74l26.16,50.64-6.22,3.21-26.16-50.64,6.22-3.21M1157.89,758.39l-8,4.13,27.07,52.42,8-4.13-27.07-52.42h0Z"/>
    </g>
    <g>
      <rect class="cls-3" x="1121.43" y="820.67" width="58" height="8" transform="translate(-59.17 1559.82) rotate(-66.92)"/>
      <path class="cls-4" d="M1158.38,797.08l6.44,2.74-22.34,52.44-6.44-2.74,22.34-52.44M1157.85,795.77l-23.13,54.28,8.28,3.53,23.13-54.28-8.28-3.53h0Z"/>
    </g>
    <g>
      <rect class="cls-3" x="1198.43" y="754.67" width="8" height="58" transform="translate(-169.37 361.61) rotate(-15.99)"/>
      <path class="cls-4" d="M1197.94,755.31l15.7,54.79-6.73,1.93-15.7-54.79,6.73-1.93M1198.63,754.07l-8.65,2.48,16.25,56.72,8.65-2.48-16.25-56.72h0Z"/>
    </g>
    <g>
      <rect class="cls-3" x="1197.43" y="776.67" width="58" height="8" transform="translate(289.26 1892.11) rotate(-82.34)"/>
      <path class="cls-4" d="M1226.76,751.96l6.94.93-7.6,56.49-6.94-.93,7.6-56.49M1225.9,750.83l-7.86,58.47,8.92,1.2,7.86-58.47-8.92-1.2h0Z"/>
    </g>
    <g>
      <rect class="cls-3" x="1197.43" y="834.67" width="58" height="8" transform="translate(231.78 1942.38) rotate(-82.34)"/>
      <path class="cls-4" d="M1226.76,809.96l6.94.93-7.6,56.49-6.94-.93,7.6-56.49M1225.9,808.83l-7.86,58.47,8.92,1.2,7.86-58.47-8.92-1.2h0Z"/>
    </g>
    <g>
      <rect class="cls-3" x="1246.43" y="827.67" width="8" height="58" transform="translate(-235.5 557.57) rotate(-23.03)"/>
      <path class="cls-4" d="M1242.5,829.07l22.31,52.45-6.44,2.74-22.31-52.45,6.44-2.74M1243.03,827.76l-8.28,3.52,23.09,54.3,8.28-3.52-23.09-54.3h0Z"/>
    </g>
    <g>
      <rect class="cls-3" x="1242.43" y="770.67" width="8" height="58" transform="translate(-172.08 374.35) rotate(-15.99)"/>
      <path class="cls-4" d="M1241.94,771.31l15.7,54.79-6.73,1.93-15.7-54.79,6.73-1.93M1242.63,770.07l-8.65,2.48,16.25,56.72,8.65-2.48-16.25-56.72h0Z"/>
    </g>
    <g>
      <rect class="cls-3" x="1264.43" y="799.67" width="8" height="58" transform="translate(-150.34 296.98) rotate(-12.61)"/>
      <path class="cls-4" d="M1265.62,800.09l12.45,55.62-6.83,1.53-12.45-55.62,6.83-1.53M1266.38,798.9l-8.78,1.97,12.88,57.58,8.78-1.97-12.88-57.58h0Z"/>
    </g>
    <g>
      <rect class="cls-3" x="1019.86" y="837.37" width="58" height="8" transform="translate(34.13 1723.61) rotate(-79.74)"/>
      <path class="cls-4" d="M1050.49,812.7l6.89,1.25-10.15,56.09-6.89-1.25,10.15-56.09M1049.68,811.54l-10.51,58.06,8.86,1.6,10.51-58.06-8.86-1.6h0Z"/>
    </g>
    <g>
      <rect class="cls-3" x="993.86" y="875.37" width="58" height="8" transform="translate(-108.44 1614.02) rotate(-73.69)"/>
      <path class="cls-4" d="M1027.5,851.04l6.72,1.97-16.01,54.71-6.72-1.97,16.01-54.71M1026.83,849.8l-16.57,56.62,8.64,2.53,16.57-56.62-8.64-2.53h0Z"/>
    </g>
    <g>
      <rect class="cls-3" x="1065.86" y="846.37" width="8" height="58" transform="translate(-199.77 328.64) rotate(-15.99)"/>
      <path class="cls-4" d="M1065.37,847.01l15.7,54.79-6.73,1.93-15.7-54.79,6.73-1.93M1066.06,845.77l-8.65,2.48,16.25,56.72,8.65-2.48-16.25-56.72h0Z"/>
    </g>
    <g>
      <rect class="cls-3" x="1023.86" y="764.37" width="8" height="58" transform="translate(-249.46 560.15) rotate(-27.32)"/>
      <path class="cls-4" d="M1017.89,766.44l26.16,50.64-6.22,3.21-26.16-50.64,6.22-3.21M1018.32,765.1l-8,4.13,27.07,52.42,8-4.13-27.07-52.42h0Z"/>
    </g>
    <g>
      <rect class="cls-3" x="981.86" y="827.37" width="58" height="8" transform="translate(-150.21 1435.47) rotate(-66.92)"/>
      <path class="cls-4" d="M1018.81,803.78l6.44,2.74-22.34,52.44-6.44-2.74,22.34-52.44M1018.28,802.47l-23.13,54.28,8.28,3.53,23.13-54.28-8.28-3.53h0Z"/>
    </g>
    <g>
      <rect class="cls-3" x="1058.86" y="761.37" width="8" height="58" transform="translate(-176.62 323.42) rotate(-15.99)"/>
      <path class="cls-4" d="M1058.37,762.01l15.7,54.79-6.73,1.93-15.7-54.79,6.73-1.93M1059.06,760.77l-8.65,2.48,16.25,56.72,8.65-2.48-16.25-56.72h0Z"/>
    </g>
    <g>
      <rect class="cls-3" x="1057.86" y="783.37" width="58" height="8" transform="translate(161.65 1759.59) rotate(-82.34)"/>
      <path class="cls-4" d="M1087.19,758.66l6.94.93-7.6,56.49-6.94-.93,7.6-56.49M1086.33,757.54l-7.86,58.47,8.92,1.2,7.86-58.47-8.92-1.2h0Z"/>
    </g>
    <g>
      <rect class="cls-3" x="1057.86" y="841.37" width="58" height="8" transform="translate(104.17 1809.86) rotate(-82.34)"/>
      <path class="cls-4" d="M1087.19,816.66l6.94.93-7.6,56.49-6.94-.93,7.6-56.49M1086.33,815.54l-7.86,58.47,8.92,1.2,7.86-58.47-8.92-1.2h0Z"/>
    </g>
    <g>
      <rect class="cls-3" x="1106.86" y="834.37" width="8" height="58" transform="translate(-249.25 503.49) rotate(-23.03)"/>
      <path class="cls-4" d="M1102.93,835.78l22.31,52.45-6.44,2.74-22.31-52.45,6.44-2.74M1103.46,834.46l-8.28,3.52,23.09,54.3,8.28-3.52-23.09-54.3h0Z"/>
    </g>
    <g>
      <rect class="cls-3" x="1102.86" y="777.37" width="8" height="58" transform="translate(-179.33 336.16) rotate(-15.99)"/>
      <path class="cls-4" d="M1102.37,778.01l15.7,54.79-6.73,1.93-15.7-54.79,6.73-1.93M1103.06,776.77l-8.65,2.48,16.25,56.72,8.65-2.48-16.25-56.72h0Z"/>
    </g>
    <g>
      <rect class="cls-3" x="1124.86" y="806.37" width="8" height="58" transform="translate(-155.17 266.66) rotate(-12.61)"/>
      <path class="cls-4" d="M1126.05,806.8l12.45,55.62-6.83,1.53-12.45-55.62,6.83-1.53M1126.81,805.6l-8.78,1.97,12.88,57.58,8.78-1.97-12.88-57.58h0Z"/>
    </g>
    <circle class="cls-11" cx="1000.69" cy="755.7" r="50.37"/>
    <circle class="cls-10" cx="1015.02" cy="738.61" r="14.32"/>
    <circle class="cls-10" cx="1017.05" cy="774.65" r="14.32"/>
    <circle class="cls-10" cx="979.34" cy="759.12" r="14.32"/>
    <path class="cls-8" d="M988.62,711.31c-33.59,11.65-37.84,48.41-18.92,24.21"/>
    <circle class="cls-11" cx="1110.69" cy="618.7" r="50.37"/>
    <circle class="cls-10" cx="1125.02" cy="601.61" r="14.32"/>
    <circle class="cls-10" cx="1127.05" cy="637.65" r="14.32"/>
    <circle class="cls-10" cx="1089.34" cy="622.12" r="14.32"/>
    <path class="cls-8" d="M1098.62,574.31c-33.59,11.65-37.84,48.41-18.92,24.21"/>
    <circle class="cls-11" cx="1070.69" cy="859.7" r="50.37"/>
    <circle class="cls-10" cx="1085.02" cy="842.61" r="14.32"/>
    <circle class="cls-10" cx="1087.05" cy="878.65" r="14.32"/>
    <circle class="cls-10" cx="1049.34" cy="863.12" r="14.32"/>
    <path class="cls-8" d="M1058.62,815.31c-33.59,11.65-37.84,48.41-18.92,24.21"/>
    <circle class="cls-11" cx="1195.69" cy="853.7" r="50.37"/>
    <circle class="cls-10" cx="1210.02" cy="836.61" r="14.32"/>
    <circle class="cls-10" cx="1212.05" cy="872.65" r="14.32"/>
    <circle class="cls-10" cx="1174.34" cy="857.12" r="14.32"/>
    <path class="cls-8" d="M1183.62,809.31c-33.59,11.65-37.84,48.41-18.92,24.21"/>
    <circle class="cls-11" cx="1114.69" cy="760.7" r="50.37"/>
    <circle class="cls-10" cx="1129.02" cy="743.61" r="14.32"/>
    <circle class="cls-10" cx="1131.05" cy="779.65" r="14.32"/>
    <circle class="cls-10" cx="1093.34" cy="764.12" r="14.32"/>
    <path class="cls-8" d="M1102.62,716.31c-33.59,11.65-37.84,48.41-18.92,24.21"/>
    <circle class="cls-11" cx="1219.69" cy="643.7" r="50.37"/>
    <circle class="cls-10" cx="1234.02" cy="626.61" r="14.32"/>
    <circle class="cls-10" cx="1236.05" cy="662.65" r="14.32"/>
    <circle class="cls-10" cx="1198.34" cy="647.12" r="14.32"/>
    <path class="cls-8" d="M1207.62,599.31c-33.59,11.65-37.84,48.41-18.92,24.21"/>
    <circle class="cls-11" cx="1240.69" cy="746.7" r="50.37"/>
    <circle class="cls-10" cx="1255.02" cy="729.61" r="14.32"/>
    <circle class="cls-10" cx="1257.05" cy="765.65" r="14.32"/>
    <circle class="cls-10" cx="1219.34" cy="750.12" r="14.32"/>
    <path class="cls-8" d="M1228.62,702.31c-33.59,11.65-37.84,48.41-18.92,24.21"/>
  </g>
  <g id="Layer_18" data-name="Layer 18">
    <g>
      <path class="cls-4" d="M142.66,301.18c-11.16,0-22.32,0-33.48,0,0-26.39,0-52.79,0-79.18,11.16,0,22.32,0,33.48,0,0,11.43,0,22.86,0,34.29,2.42-.56,4.85-1.11,7.27-1.67,2.19-10.95,4.39-21.91,6.58-32.86,11.16.16,22.32.32,33.48.47-1.83,8.94-3.62,17.68-5.44,26.74-.11.54-.31,1.66-.46,2.49-.15.83-.54,2.85-.67,3.61-.13.76-.3,1.79-.56,2.09-1.02,1.12-1.87,1.31-3.19,1.8-1.32.49-3.31.96-4.65,1.24-1.34.28-2.57.55-3.71.84-9.59,2.4-19.07,4.59-28.66,6.8,0,11.11,0,22.23,0,33.34ZM187.68,301.18c-11.17,0-22.32,0-33.48,0,0-11.51,0-23.02,0-34.53,5.68,0,11.01,0,16.83,0,.96,0,2.31.09,3.72.18,1.4.1,3.95.36,5.54.59,1.59.22,3.84.73,5.11,1.23,1.26.49,2.22.98,2.24,2.15.15,10.16,0,20.24.06,30.38Z"/>
      <path class="cls-4" d="M228.08,301.18c-10.78,0-21.55,0-32.33,0,.05-18.5-.07-36.98.05-55.49,0-1.16.9-1.61,2.12-2.1,1.23-.48,3.4-.95,4.94-1.17,1.54-.22,4.09-.49,5.42-.59,1.33-.1,2.7-.18,3.54-.18,11.81-.01,23.18,0,34.84,0-.01,2.7,0,5.4,0,8.1-6.19,0-12.39,0-18.59,0,0,17.15,0,34.29,0,51.44Z"/>
      <path class="cls-4" d="M252.44,241.65c10.77,0,21.55,0,32.32,0,0,19.84,0,39.69,0,59.53-10.77,0-21.55,0-32.32,0v-59.53ZM284.88,235.7c-10.78,0-21.54,0-32.33,0,.09-3.23-.12-6.41.05-9.65.06-1.17.87-1.61,2.12-2.1,1.25-.49,3.4-.95,4.94-1.17,1.55-.23,4.08-.49,5.42-.59s2.68-.18,3.54-.18c5.65-.01,10.76,0,16.26,0-.02,4.56,0,9.13,0,13.69Z"/>
      <path class="cls-4" d="M356.92,241.65c0,2.7,0,5.4,0,8.1-10.93,0-21.86,0-32.79,0,0,5.79,0,11.59,0,17.38,4.57,0,8.77,0,13.48,0,.87,0,1.98,0,3.33,0,1.35,0,3.66.07,5.34.18,1.68.1,4.18.34,5.8.59,1.62.25,3.44.65,4.64,1.18,1.2.53,1.88.94,1.9,2.1.08,8.67.09,17.27,0,25.97-.01,1.07-.94,1.55-2.13,2.03-1.19.48-3.4,1.01-4.93,1.22-1.53.21-4.1.49-5.42.58-1.32.09-2.71.18-3.54.18-17.11.01-33.8,0-50.77,0,0-2.7,0-5.4,0-8.1,11.51,0,23.01,0,34.52,0,0-5.95,0-11.91,0-17.86-4.57,0-8.77,0-13.48,0-.87,0-1.98,0-3.33,0-1.35,0-3.66-.08-5.34-.18-1.68-.1-4.18-.35-5.8-.59s-3.47-.7-4.63-1.23-1.89-.98-1.9-2.04c-.09-8.53-.09-16.97,0-25.5.01-1.17.9-1.61,2.12-2.1,1.23-.48,3.4-.95,4.94-1.17,1.54-.22,4.1-.49,5.42-.59,1.32-.1,2.71-.18,3.54-.18,16.54-.01,32.65,0,49.04,0Z"/>
      <path class="cls-4" d="M438.3,293.09c0,2.7,0,5.4,0,8.1-18.93,0-37.59,0-56.66,0-.83,0-2.22-.09-3.54-.18s-3.89-.37-5.42-.58-3.74-.74-4.93-1.22c-1.19-.48-2.12-.97-2.13-2.03-.09-17.2-.08-34.28,0-51.47,0-1.17.9-1.61,2.13-2.1,1.23-.48,3.4-.95,4.94-1.17,1.54-.22,4.09-.49,5.42-.59s2.7-.18,3.54-.18c14.15,0,27.59,0,41.74,0,.84,0,2.21.09,3.54.18,1.33.1,3.88.36,5.42.59,1.54.22,3.71.69,4.94,1.17s2.12.93,2.12,2.1c.08,11.55.09,22.99,0,34.56,0,1.06-.94,1.55-2.13,2.03-1.19.48-3.39,1.01-4.93,1.22s-4.07.49-5.42.58c-1.35.09-2.63.18-3.54.18-3.45,0-6.11,0-9.48,0-1.11,0-2.23-.05-3.61-.12-1.38-.07-3.5-.29-5-.53-1.51-.24-3.37-.67-4.68-1.12-1.3-.45-1.95-.81-2.73-1.8.02,4.13,0,8.26.01,12.39,13.47,0,26.94,0,40.4,0ZM397.9,276.18c3.08,0,6.16,0,9.24,0v-26.43c-3.08,0-6.16,0-9.24,0,0,8.81,0,17.62,0,26.43Z"/>
      <path class="cls-4" d="M478.33,222.52h33.48c0,26.39,0,52.79,0,79.18-11.16,0-22.32,0-33.48,0,0-26.39,0-52.79,0-79.18Z"/>
      <path class="cls-4" d="M580.3,301.18c-11.16,0-22.32,0-33.48,0,0-26.39,0-52.79,0-79.18,11.16,0,22.32,0,33.48,0,0,11.43,0,22.86,0,34.29,2.42-.56,4.85-1.11,7.27-1.67,2.19-10.95,4.39-21.91,6.58-32.86,11.16.16,22.32.32,33.48.47-1.83,8.94-3.62,17.68-5.44,26.74-.11.54-.31,1.66-.46,2.49-.15.83-.54,2.85-.67,3.61s-.3,1.79-.56,2.09c-1.02,1.12-1.87,1.31-3.19,1.8-1.32.49-3.31.96-4.65,1.24s-2.57.55-3.71.84c-9.59,2.4-19.07,4.59-28.66,6.8,0,11.11,0,22.23,0,33.34ZM625.32,301.18c-11.17,0-22.32,0-33.48,0,0-11.51,0-23.02,0-34.53,5.68,0,11.01,0,16.83,0,.96,0,2.31.09,3.72.18,1.4.1,3.95.36,5.54.59,1.59.22,3.84.73,5.11,1.23,1.26.49,2.22.98,2.24,2.15.15,10.16,0,20.24.06,30.38Z"/>
      <path class="cls-4" d="M691.21,301.18c-9.7.01-18.94,0-28.49,0-1.03,2.74-2.08,5.48-3.11,8.22-2.16-.71-4.31-1.43-6.47-2.14.78-2.02,1.53-4.05,2.32-6.07-2.12,0-3.71.01-5.98,0-.95,0-2.17-.09-3.54-.18s-3.88-.37-5.43-.58c-1.54-.22-3.74-.74-4.93-1.22-1.19-.48-2.12-.97-2.13-2.03-.09-17.2-.08-34.28,0-51.47,0-1.17.9-1.61,2.13-2.1,1.23-.48,3.4-.95,4.94-1.17,1.54-.22,4.09-.49,5.42-.59,1.33-.1,2.7-.18,3.54-.18,9.66-.01,18.86,0,28.38,0,1.03-2.74,2.08-5.48,3.11-8.22,2.16.71,4.31,1.43,6.47,2.14-.78,2.02-1.53,4.05-2.32,6.07,2.16,0,3.79-.01,6.1,0,.94,0,2.17.08,3.54.18s3.88.36,5.43.59,3.71.69,4.94,1.17,2.12.93,2.13,2.1c.08,17.18.08,34.26,0,51.47,0,1.06-.94,1.55-2.13,2.03-1.19.48-3.4,1.01-4.93,1.22-1.53.21-4.09.49-5.42.58-1.33.09-2.7.18-3.54.18ZM665.72,249.75c0,8.06,0,16.11,0,24.17,3.04-8.06,6.08-16.11,9.12-24.17-3.04,0-6.08,0-9.12,0ZM674.96,293.09c0-8.14,0-16.27,0-24.41-3.08,8.14-6.16,16.27-9.24,24.41,3.08,0,6.16,0,9.24,0Z"/>
      <path class="cls-4" d="M714.21,222h32.32c0,15,0,30,0,45.01,2-.4,4-.79,6-1.19,1.08-8.02,2.15-16.04,3.23-24.05,10.78-.01,21.55.02,32.33-.02-.22,1.57-.3,2.15-.54,3.95-.24,1.8-.6,4.57-.85,6.69-.25,2.12-.66,5.36-.91,7.32-.24,1.96-.65,4.77-.85,6.01-.2,1.24-.26,2.43-.5,2.67-1.64,1.58-2.25,1.34-4.5,2.04-2.26.71-5.62,1.43-8.5,2.07-2.88.63-7.1,1.45-10.08,2-2.98.55-6.6,1.22-9.13,1.71-2.53.48-3.48.67-5.72,1.05.06,7.97.01,15.95.03,23.93-10.78,0-21.55,0-32.33,0v-79.18ZM786.94,301.18c-10.78,0-21.55,0-32.33,0,0-8.1,0-16.19,0-24.29,5.5,0,10.61,0,16.26,0,.86,0,2.2.09,3.54.18,1.34.1,3.88.36,5.42.59,1.54.22,3.7.69,4.94,1.17s2.1.93,2.12,2.1c.15,6.77-.01,13.49.05,20.25Z"/>
      <path class="cls-4" d="M795.02,222h32.32c0,15,0,30,0,45.01,2-.4,4-.79,6-1.19,1.08-8.02,2.15-16.04,3.23-24.05,10.78-.01,21.55.02,32.33-.02-.22,1.57-.3,2.15-.54,3.95s-.6,4.57-.85,6.69c-.25,2.12-.66,5.36-.91,7.32-.24,1.96-.65,4.77-.85,6.01s-.26,2.43-.5,2.67c-1.64,1.58-2.25,1.34-4.5,2.04-2.26.71-5.62,1.43-8.5,2.07s-7.1,1.45-10.08,2c-2.98.55-6.6,1.22-9.13,1.71-2.53.48-3.48.67-5.72,1.05.06,7.97.01,15.95.03,23.93-10.78,0-21.55,0-32.33,0,0-26.39,0-52.79,0-79.18ZM867.75,301.18c-10.78,0-21.55,0-32.33,0,0-8.1,0-16.19,0-24.29,5.5,0,10.61,0,16.26,0,.86,0,2.2.09,3.54.18,1.34.1,3.88.36,5.42.59s3.7.69,4.94,1.17c1.24.48,2.1.93,2.12,2.1.15,6.77-.01,13.49.05,20.25Z"/>
      <path class="cls-4" d="M948.56,293.09c0,2.7,0,5.4,0,8.1-18.93,0-37.59,0-56.66,0-.83,0-2.22-.09-3.54-.18-1.32-.09-3.89-.37-5.42-.58-1.53-.21-3.74-.74-4.93-1.22-1.19-.48-2.12-.97-2.13-2.03-.09-17.2-.08-34.28,0-51.47,0-1.17.9-1.61,2.12-2.1s3.4-.95,4.94-1.17c1.54-.22,4.09-.49,5.42-.59,1.33-.1,2.7-.18,3.54-.18,14.15,0,27.59,0,41.74,0,.84,0,2.21.09,3.54.18,1.33.1,3.88.36,5.42.59,1.54.22,3.71.69,4.94,1.17s2.12.93,2.12,2.1c.08,11.55.09,22.99,0,34.56,0,1.06-.94,1.55-2.13,2.03s-3.39,1.01-4.93,1.22c-1.54.21-4.07.49-5.42.58-1.36.09-2.63.18-3.54.18-3.45,0-6.11,0-9.48,0-1.11,0-2.23-.05-3.61-.12s-3.5-.29-5-.53c-1.5-.24-3.37-.67-4.68-1.12-1.3-.45-1.95-.81-2.73-1.8.02,4.13,0,8.26.01,12.39,13.47,0,26.94,0,40.4,0ZM908.15,276.18c3.08,0,6.16,0,9.24,0,0-8.81,0-17.62,0-26.43-3.08,0-6.16,0-9.24,0v26.43Z"/>
      <path class="cls-4" d="M988.96,301.18c-10.77,0-21.55,0-32.32,0,0-19.84,0-39.69,0-59.53,19.31,0,38.36,0,57.81,0,.83,0,2.22.09,3.54.18,1.32.1,3.89.36,5.42.59s3.71.69,4.94,1.17c1.23.48,2.11.93,2.12,2.1.12,18.52,0,36.99.05,55.49-10.78,0-21.55,0-32.33,0,0-17.15,0-34.29,0-51.44-3.08,0-6.16,0-9.24,0v51.44Z"/>
      <path class="cls-4" d="M1110.18,293.09c0,2.7,0,5.4,0,8.1-18.93,0-37.59,0-56.66,0-.83,0-2.22-.09-3.54-.18-1.32-.09-3.89-.37-5.42-.58-1.53-.21-3.74-.74-4.93-1.22s-2.12-.97-2.13-2.03c-.09-17.2-.08-34.28,0-51.47,0-1.17.9-1.61,2.12-2.1s3.4-.95,4.94-1.17,4.09-.49,5.42-.59c1.33-.1,2.7-.18,3.54-.18,14.15,0,27.59,0,41.74,0,.84,0,2.21.09,3.54.18,1.33.1,3.88.36,5.42.59,1.54.22,3.71.69,4.94,1.17,1.23.48,2.12.93,2.12,2.1.08,11.55.09,22.99,0,34.56,0,1.06-.94,1.55-2.13,2.03-1.19.48-3.39,1.01-4.93,1.22-1.54.21-4.07.49-5.42.58-1.36.09-2.63.18-3.54.18-3.45,0-6.11,0-9.48,0-1.11,0-2.23-.05-3.61-.12-1.38-.07-3.5-.29-5-.53s-3.37-.67-4.68-1.12c-1.3-.45-1.95-.81-2.73-1.8.02,4.13,0,8.26.01,12.39,13.47,0,26.94,0,40.4,0ZM1069.77,276.18c3.08,0,6.16,0,9.23,0v-26.43c-3.08,0-6.16,0-9.23,0v26.43Z"/>
      <path class="cls-4" d="M1118.26,252.13v-8.1c3.46,0,6.93,0,10.39,0,0-5.56,0-11.11,0-16.67h30.02c0,5.56,0,11.11,0,16.67,4.62,0,9.24,0,13.85,0v8.1h-13.85c0,13.65,0,27.31,0,40.96,4.62,0,9.24,0,13.85,0,0,2.7,0,5.4,0,8.1-10.09,0-19.87,0-30.11,0-.84,0-2.21-.09-3.54-.18-1.33-.09-3.89-.37-5.42-.58s-3.74-.74-4.93-1.22-2.12-.97-2.13-2.03c-.1-13.35-.07-26.59-.01-39.91,0-.95.62-1.33,1.6-1.8.98-.47,2.49-.87,3.83-1.12,1.34-.24,3.21-.5,4.62-.65,1.41-.14,2.72-.26,4.11-.36,0-.4,0-.79,0-1.19-7.43,0-14.85,0-22.28,0Z"/>
    </g>
  </g>
</svg>